<?xml version="1.0" encoding="UTF-8"?><svg id="Layer_2" xmlns="http://www.w3.org/2000/svg" viewBox="0 0 106.45 89.4"><defs><style>.cls-1{fill:#22c55e;}</style></defs><g id="Layer_1-2"><path class="cls-1" d="M54.71,89.4c-10.96,0-21.26-4.27-29.01-12.02-7.75-7.75-12.02-18.05-12.02-29.01h16.48c0,13.54,11.01,24.55,24.55,24.55s24.55-11.01,24.55-24.55h16.48c0,10.96-4.27,21.26-12.02,29.01-7.75,7.75-18.05,12.02-29.01,12.02Z"/><path class="cls-1" d="M104.5,38.2c1.15,0,2.06-1.13,1.94-2.43-1.07-10.95-9.25-19.46-19.19-19.46s-18.13,8.52-19.19,19.46c-.13,1.3.78,2.43,1.94,2.43h34.51Z"/><path class="cls-1" d="M33.87,37.86c5.5,0,9.96-4.46,9.96-9.96,0-3.3-1.63-6.38-4.36-8.24,1.5-5.29-1.57-10.8-6.86-12.3-.38-.11-.76-.19-1.15-.25C30.2,2.88,26.32,0,21.92,0c-4.4,0-8.28,2.88-9.54,7.1-5.43.87-9.13,5.98-8.27,11.41.06.39.15.77.25,1.15C-.19,22.75-1.37,28.95,1.72,33.5c1.85,2.73,4.94,4.36,8.24,4.36h23.91Z"/></g></svg>