<?xml version="1.0" encoding="UTF-8"?><svg id="Layer_2" xmlns="http://www.w3.org/2000/svg" viewBox="0 0 574.77 513.55"><defs><style>.cls-1{fill:#22c55e;}</style></defs><g id="Layer_1-2"><path class="cls-1" d="M295.41,513.55c-59.69,0-115.78-23.45-157.74-65.98-41.25-41.81-63.81-98.55-63.81-157.28v-32.48c0-6.11,4.95-11.06,11.06-11.06h66.88c6.11,0,11.06,4.95,11.06,11.06v32.72c0,73.15,58.64,133.59,131.78,134.01,70.02.4,127.72-53.77,132.95-122.38.44-5.75,5.25-10.17,11.01-10.17h67.03c6.35,0,11.37,5.34,11.04,11.69-2.83,54.79-25.51,105.9-64.59,144.98-41.85,41.85-97.48,64.89-156.67,64.89Z"/><path class="cls-1" d="M564.25,253.26c6.22,0,11.14-6.11,10.46-13.12-5.76-59.11-49.95-105.1-103.63-105.1s-97.87,45.98-103.63,105.1c-.68,7.01,4.24,13.12,10.46,13.12h186.33Z"/><path class="cls-1" d="M182.9,204.42c29.71,0,53.79-24.08,53.79-53.79,0-17.81-8.82-34.47-23.55-44.49,8.11-28.58-8.48-58.33-37.06-66.44-2.04-.58-4.11-1.04-6.2-1.37C163.05,15.57,142.11,0,118.35,0c-23.76,0-44.7,15.57-51.53,38.32-29.34,4.69-49.32,32.27-44.63,61.61.33,2.09.79,4.17,1.37,6.2C-1.01,122.84-7.39,156.3,9.31,180.87c10.01,14.73,26.67,23.55,44.49,23.55"/></g></svg>