<?xml version="1.0" encoding="UTF-8"?><svg id="Layer_2" xmlns="http://www.w3.org/2000/svg" xmlns:xlink="http://www.w3.org/1999/xlink" viewBox="0 0 374.13 68.49"><defs><style>.cls-1{fill:url(#linear-gradient);}.cls-2{fill:#1a1a1a;stroke:#000;stroke-miterlimit:10;stroke-width:2px;}</style><linearGradient id="linear-gradient" x1="33.8" y1="68.49" x2="33.8" y2="0" gradientUnits="userSpaceOnUse"><stop offset="0" stop-color="#86efac"/><stop offset="1" stop-color="#22c55e"/></linearGradient></defs><g id="Layer_1-2"><path class="cls-2" d="M91.14,51.55v-4.35c2.07,1.67,4.17,2.83,6.3,3.5.63.17,1.25.29,1.85.38.6.08,1.22.12,1.85.12,2.03,0,3.72-.47,5.05-1.4,1.37-1,2.05-2.12,2.05-3.35,0-.67-.25-1.35-.75-2.05-.7-.87-2.57-1.65-5.6-2.35-3.6-.9-6-1.65-7.2-2.25-2.33-1.33-3.5-3.2-3.5-5.6,0-2.23.97-4.07,2.9-5.5,1.97-1.47,4.42-2.2,7.35-2.2,1.33,0,2.53.12,3.6.35,1.07.23,2.07.54,3,.92.93.38,1.8.86,2.6,1.43v4.35c-1.4-1.17-2.87-2.09-4.4-2.78-1.53-.68-3.15-1.02-4.85-1.02s-3.17.38-4.4,1.15c-1.27.77-1.9,1.77-1.9,3,0,1.63,1.5,2.93,4.5,3.9,1.4.4,2.78.8,4.15,1.2,1.37.4,2.75.8,4.15,1.2,3.03,1.3,4.55,3.27,4.55,5.9,0,2.23-1.05,4.2-3.15,5.9-2.13,1.67-4.78,2.5-7.95,2.5-1.4,0-2.77-.15-4.1-.45-2.13-.47-4.17-1.3-6.1-2.5Z"/><path class="cls-2" d="M116.44,14.65h3.65v24.25l12.3-11.8h5.1l-11.25,10.4,12.85,16.35h-4.95l-10.6-13.95-3.45,3.2v10.75h-3.65V14.65Z"/><path class="cls-2" d="M154.64,54.5c-3.43,0-6.45-1.25-9.05-3.75-2.77-2.63-4.15-6.05-4.15-10.25,0-3.97,1.22-7.28,3.65-9.95,2.5-2.7,5.58-4.05,9.25-4.05s6.7,1.35,9.2,4.05c2.47,2.67,3.7,5.97,3.7,9.9,0,4.13-1.33,7.55-4,10.25-2.47,2.53-5.33,3.8-8.6,3.8ZM154.29,51.2c2.4,0,4.53-1,6.4-3,1.8-2.03,2.7-4.62,2.7-7.75s-.97-5.87-2.9-7.9c-1.77-1.87-3.82-2.8-6.15-2.8s-4.45.97-6.15,2.9c-1.87,2.13-2.8,4.75-2.8,7.85s.92,5.75,2.75,7.85c1.7,1.9,3.75,2.85,6.15,2.85Z"/><path class="cls-2" d="M191.09,30.1l1-3h2.65v24.2c0,4.17-1.02,7.33-3.05,9.5-2.03,2.17-5.18,3.25-9.45,3.25-1.73,0-3.38-.31-4.93-.93-1.55-.62-3.17-1.57-4.88-2.88v-4.4c1.07,1,2.12,1.84,3.15,2.52s2.05,1.21,3.05,1.58c1.17.43,2.37.65,3.6.65,2.63,0,4.68-.6,6.15-1.8,1.8-1.47,2.7-3.82,2.7-7.05v-3.3c-1.27,2.1-2.83,3.58-4.7,4.45-1.27.6-2.67.9-4.2.9-3.3,0-6.07-1.32-8.3-3.95-2.2-2.7-3.3-5.82-3.3-9.35s1.03-6.65,3.1-9.35c2.4-3.1,5.47-4.65,9.2-4.65,1.87,0,3.63.45,5.3,1.35.5.3.99.63,1.48,1,.48.37.96.78,1.42,1.25ZM191.09,40.9v-7.35c-.57-.63-1.14-1.17-1.72-1.6-.58-.43-1.16-.82-1.73-1.15-.67-.37-1.35-.63-2.05-.8-.7-.17-1.42-.25-2.15-.25-2.5,0-4.57.88-6.2,2.65-1.83,2-2.75,4.63-2.75,7.9,0,2.97.77,5.42,2.3,7.35,1.5,1.9,3.45,2.85,5.85,2.85s4.37-.92,6-2.75c1.63-1.77,2.45-4.05,2.45-6.85Z"/><path class="cls-2" d="M198.89,51.55v-4.35c2.07,1.67,4.17,2.83,6.3,3.5.63.17,1.25.29,1.85.38.6.08,1.22.12,1.85.12,2.03,0,3.72-.47,5.05-1.4,1.37-1,2.05-2.12,2.05-3.35,0-.67-.25-1.35-.75-2.05-.7-.87-2.57-1.65-5.6-2.35-3.6-.9-6-1.65-7.2-2.25-2.33-1.33-3.5-3.2-3.5-5.6,0-2.23.97-4.07,2.9-5.5,1.97-1.47,4.42-2.2,7.35-2.2,1.33,0,2.53.12,3.6.35,1.07.23,2.07.54,3,.92.93.38,1.8.86,2.6,1.43v4.35c-1.4-1.17-2.87-2.09-4.4-2.78-1.53-.68-3.15-1.02-4.85-1.02s-3.17.38-4.4,1.15c-1.27.77-1.9,1.77-1.9,3,0,1.63,1.5,2.93,4.5,3.9,1.4.4,2.78.8,4.15,1.2,1.37.4,2.75.8,4.15,1.2,3.03,1.3,4.55,3.27,4.55,5.9,0,2.23-1.05,4.2-3.15,5.9-2.13,1.67-4.78,2.5-7.95,2.5-1.4,0-2.77-.15-4.1-.45-2.13-.47-4.17-1.3-6.1-2.5Z"/><path class="cls-2" d="M223.69,51.55v-4.35c2.07,1.67,4.17,2.83,6.3,3.5.63.17,1.25.29,1.85.38.6.08,1.22.12,1.85.12,2.03,0,3.72-.47,5.05-1.4,1.37-1,2.05-2.12,2.05-3.35,0-.67-.25-1.35-.75-2.05-.7-.87-2.57-1.65-5.6-2.35-3.6-.9-6-1.65-7.2-2.25-2.33-1.33-3.5-3.2-3.5-5.6,0-2.23.97-4.07,2.9-5.5,1.97-1.47,4.42-2.2,7.35-2.2,1.33,0,2.53.12,3.6.35,1.07.23,2.07.54,3,.92.93.38,1.8.86,2.6,1.43v4.35c-1.4-1.17-2.87-2.09-4.4-2.78-1.53-.68-3.15-1.02-4.85-1.02s-3.17.38-4.4,1.15c-1.27.77-1.9,1.77-1.9,3,0,1.63,1.5,2.93,4.5,3.9,1.4.4,2.78.8,4.15,1.2,1.37.4,2.75.8,4.15,1.2,3.03,1.3,4.55,3.27,4.55,5.9,0,2.23-1.05,4.2-3.15,5.9-2.13,1.67-4.78,2.5-7.95,2.5-1.4,0-2.77-.15-4.1-.45-2.13-.47-4.17-1.3-6.1-2.5Z"/><path class="cls-2" d="M247.58,27.1h4.05l8.5,22.95,8.7-22.95h3.6l-10.7,26.75h-3.45l-10.7-26.75Z"/><path class="cls-2" d="M296.88,36.55v12.6c0,.57.12,1.06.38,1.47.25.42.71.62,1.38.62.2,0,.37,0,.5-.02s.27-.04.4-.08c.2-.07.38-.13.53-.2.15-.07.27-.12.38-.15v2.8c-.6.2-1.2.34-1.8.42-.6.08-1.07.12-1.4.12-1.7,0-2.82-.45-3.35-1.35-.43-.57-.65-1.78-.65-3.65-.43.73-.87,1.38-1.3,1.92-.43.55-.87,1.01-1.3,1.38-1.73,1.37-3.75,2.05-6.05,2.05-2.43,0-4.55-.72-6.35-2.15-1.87-1.53-2.8-3.48-2.8-5.85,0-2.97,1.5-5.15,4.5-6.55,1.1-.53,2.56-1,4.38-1.4,1.82-.4,3.99-.77,6.52-1.1l2.4-.25c0-2.33-.59-4.16-1.78-5.48-1.18-1.32-2.92-1.98-5.22-1.98-.87,0-1.73.11-2.58.33-.85.22-1.71.56-2.58,1.02-.47.27-.98.58-1.55.95-.57.37-1.18.83-1.85,1.4v-4.1c2.83-1.9,5.88-2.85,9.15-2.85s5.9,1.05,7.7,3.15c1.57,1.83,2.35,4.13,2.35,6.9ZM293.23,41.8v-1.6l-1.7.2c-4.17.43-7.1,1.02-8.8,1.75-2.27.9-3.4,2.37-3.4,4.4,0,.6.13,1.17.4,1.72.27.55.63,1.04,1.1,1.47.47.43,1.04.78,1.73,1.05.68.27,1.44.4,2.27.4,2.27,0,4.25-.92,5.95-2.75,1.63-1.87,2.45-4.08,2.45-6.65Z"/><path class="cls-2" d="M344.18,36.7v17.15h-3.65v-18c0-1.9-.65-3.43-1.95-4.6-1.1-1-2.4-1.5-3.9-1.5-2.23,0-4.23,1.03-6,3.1-1.73,2.03-2.6,4.55-2.6,7.55v13.45h-3.65v-18c0-1.8-.62-3.25-1.85-4.35-1.17-1.17-2.5-1.75-4-1.75-2.17,0-4.1.97-5.8,2.9-1.87,2.13-2.8,4.77-2.8,7.9v13.3h-3.65v-26.75h3.4l.15,4.25c.97-1.57,2.35-2.8,4.15-3.7,1.6-.77,3.22-1.15,4.85-1.15,2.53,0,4.67.73,6.4,2.2,1.27,1.1,2.07,2.2,2.4,3.3.67-1.23,1.62-2.35,2.85-3.35,1.93-1.43,4.07-2.15,6.4-2.15,2.83,0,5.03.85,6.6,2.55,1.77,1.93,2.65,4.48,2.65,7.65Z"/><path class="cls-2" d="M352.48,51.45v11h-3.5V27.1h3.25l.2,4.85c1.1-1.8,2.37-3.16,3.8-4.08,1.43-.92,3.17-1.38,5.2-1.38,3.33,0,6.1,1.3,8.3,3.9,1.13,1.3,1.98,2.76,2.55,4.38.57,1.62.85,3.43.85,5.43,0,4.13-1.25,7.55-3.75,10.25s-5.48,4.05-8.95,4.05c-1.73,0-3.33-.37-4.8-1.1-.43-.17-.9-.42-1.4-.75-.5-.33-1.08-.73-1.75-1.2ZM352.48,39.6v8c.53.5,1.03.92,1.47,1.27.45.35.86.64,1.22.88,1.63.97,3.28,1.45,4.95,1.45,2.67,0,4.85-1.05,6.55-3.15,1.73-2.2,2.6-4.87,2.6-8,0-2.93-.8-5.38-2.4-7.35-1.57-1.97-3.57-2.95-6-2.95s-4.57,1.08-6.2,3.25c-1.47,1.97-2.2,4.17-2.2,6.6Z"/><path class="cls-2" d="M91.14,51.55v-4.35c2.07,1.67,4.17,2.83,6.3,3.5.63.17,1.25.29,1.85.38.6.08,1.22.12,1.85.12,2.03,0,3.72-.47,5.05-1.4,1.37-1,2.05-2.12,2.05-3.35,0-.67-.25-1.35-.75-2.05-.7-.87-2.57-1.65-5.6-2.35-3.6-.9-6-1.65-7.2-2.25-2.33-1.33-3.5-3.2-3.5-5.6,0-2.23.97-4.07,2.9-5.5,1.97-1.47,4.42-2.2,7.35-2.2,1.33,0,2.53.12,3.6.35,1.07.23,2.07.54,3,.92.93.38,1.8.86,2.6,1.43v4.35c-1.4-1.17-2.87-2.09-4.4-2.78-1.53-.68-3.15-1.02-4.85-1.02s-3.17.38-4.4,1.15c-1.27.77-1.9,1.77-1.9,3,0,1.63,1.5,2.93,4.5,3.9,1.4.4,2.78.8,4.15,1.2,1.37.4,2.75.8,4.15,1.2,3.03,1.3,4.55,3.27,4.55,5.9,0,2.23-1.05,4.2-3.15,5.9-2.13,1.67-4.78,2.5-7.95,2.5-1.4,0-2.77-.15-4.1-.45-2.13-.47-4.17-1.3-6.1-2.5Z"/><path class="cls-2" d="M116.44,14.65h3.65v24.25l12.3-11.8h5.1l-11.25,10.4,12.85,16.35h-4.95l-10.6-13.95-3.45,3.2v10.75h-3.65V14.65Z"/><path class="cls-2" d="M154.64,54.5c-3.43,0-6.45-1.25-9.05-3.75-2.77-2.63-4.15-6.05-4.15-10.25,0-3.97,1.22-7.28,3.65-9.95,2.5-2.7,5.58-4.05,9.25-4.05s6.7,1.35,9.2,4.05c2.47,2.67,3.7,5.97,3.7,9.9,0,4.13-1.33,7.55-4,10.25-2.47,2.53-5.33,3.8-8.6,3.8ZM154.29,51.2c2.4,0,4.53-1,6.4-3,1.8-2.03,2.7-4.62,2.7-7.75s-.97-5.87-2.9-7.9c-1.77-1.87-3.82-2.8-6.15-2.8s-4.45.97-6.15,2.9c-1.87,2.13-2.8,4.75-2.8,7.85s.92,5.75,2.75,7.85c1.7,1.9,3.75,2.85,6.15,2.85Z"/><path class="cls-2" d="M191.09,30.1l1-3h2.65v24.2c0,4.17-1.02,7.33-3.05,9.5-2.03,2.17-5.18,3.25-9.45,3.25-1.73,0-3.38-.31-4.93-.93-1.55-.62-3.17-1.57-4.88-2.88v-4.4c1.07,1,2.12,1.84,3.15,2.52s2.05,1.21,3.05,1.58c1.17.43,2.37.65,3.6.65,2.63,0,4.68-.6,6.15-1.8,1.8-1.47,2.7-3.82,2.7-7.05v-3.3c-1.27,2.1-2.83,3.58-4.7,4.45-1.27.6-2.67.9-4.2.9-3.3,0-6.07-1.32-8.3-3.95-2.2-2.7-3.3-5.82-3.3-9.35s1.03-6.65,3.1-9.35c2.4-3.1,5.47-4.65,9.2-4.65,1.87,0,3.63.45,5.3,1.35.5.3.99.63,1.48,1,.48.37.96.78,1.42,1.25ZM191.09,40.9v-7.35c-.57-.63-1.14-1.17-1.72-1.6-.58-.43-1.16-.82-1.73-1.15-.67-.37-1.35-.63-2.05-.8-.7-.17-1.42-.25-2.15-.25-2.5,0-4.57.88-6.2,2.65-1.83,2-2.75,4.63-2.75,7.9,0,2.97.77,5.42,2.3,7.35,1.5,1.9,3.45,2.85,5.85,2.85s4.37-.92,6-2.75c1.63-1.77,2.45-4.05,2.45-6.85Z"/><path class="cls-2" d="M198.89,51.55v-4.35c2.07,1.67,4.17,2.83,6.3,3.5.63.17,1.25.29,1.85.38.6.08,1.22.12,1.85.12,2.03,0,3.72-.47,5.05-1.4,1.37-1,2.05-2.12,2.05-3.35,0-.67-.25-1.35-.75-2.05-.7-.87-2.57-1.65-5.6-2.35-3.6-.9-6-1.65-7.2-2.25-2.33-1.33-3.5-3.2-3.5-5.6,0-2.23.97-4.07,2.9-5.5,1.97-1.47,4.42-2.2,7.35-2.2,1.33,0,2.53.12,3.6.35,1.07.23,2.07.54,3,.92.93.38,1.8.86,2.6,1.43v4.35c-1.4-1.17-2.87-2.09-4.4-2.78-1.53-.68-3.15-1.02-4.85-1.02s-3.17.38-4.4,1.15c-1.27.77-1.9,1.77-1.9,3,0,1.63,1.5,2.93,4.5,3.9,1.4.4,2.78.8,4.15,1.2,1.37.4,2.75.8,4.15,1.2,3.03,1.3,4.55,3.27,4.55,5.9,0,2.23-1.05,4.2-3.15,5.9-2.13,1.67-4.78,2.5-7.95,2.5-1.4,0-2.77-.15-4.1-.45-2.13-.47-4.17-1.3-6.1-2.5Z"/><path class="cls-2" d="M223.69,51.55v-4.35c2.07,1.67,4.17,2.83,6.3,3.5.63.17,1.25.29,1.85.38.6.08,1.22.12,1.85.12,2.03,0,3.72-.47,5.05-1.4,1.37-1,2.05-2.12,2.05-3.35,0-.67-.25-1.35-.75-2.05-.7-.87-2.57-1.65-5.6-2.35-3.6-.9-6-1.65-7.2-2.25-2.33-1.33-3.5-3.2-3.5-5.6,0-2.23.97-4.07,2.9-5.5,1.97-1.47,4.42-2.2,7.35-2.2,1.33,0,2.53.12,3.6.35,1.07.23,2.07.54,3,.92.93.38,1.8.86,2.6,1.43v4.35c-1.4-1.17-2.87-2.09-4.4-2.78-1.53-.68-3.15-1.02-4.85-1.02s-3.17.38-4.4,1.15c-1.27.77-1.9,1.77-1.9,3,0,1.63,1.5,2.93,4.5,3.9,1.4.4,2.78.8,4.15,1.2,1.37.4,2.75.8,4.15,1.2,3.03,1.3,4.55,3.27,4.55,5.9,0,2.23-1.05,4.2-3.15,5.9-2.13,1.67-4.78,2.5-7.95,2.5-1.4,0-2.77-.15-4.1-.45-2.13-.47-4.17-1.3-6.1-2.5Z"/><path class="cls-2" d="M247.58,27.1h4.05l8.5,22.95,8.7-22.95h3.6l-10.7,26.75h-3.45l-10.7-26.75Z"/><path class="cls-2" d="M296.88,36.55v12.6c0,.57.12,1.06.38,1.47.25.42.71.62,1.38.62.2,0,.37,0,.5-.02s.27-.04.4-.08c.2-.07.38-.13.53-.2.15-.07.27-.12.38-.15v2.8c-.6.2-1.2.34-1.8.42-.6.08-1.07.12-1.4.12-1.7,0-2.82-.45-3.35-1.35-.43-.57-.65-1.78-.65-3.65-.43.73-.87,1.38-1.3,1.92-.43.55-.87,1.01-1.3,1.38-1.73,1.37-3.75,2.05-6.05,2.05-2.43,0-4.55-.72-6.35-2.15-1.87-1.53-2.8-3.48-2.8-5.85,0-2.97,1.5-5.15,4.5-6.55,1.1-.53,2.56-1,4.38-1.4,1.82-.4,3.99-.77,6.52-1.1l2.4-.25c0-2.33-.59-4.16-1.78-5.48-1.18-1.32-2.92-1.98-5.22-1.98-.87,0-1.73.11-2.58.33-.85.22-1.71.56-2.58,1.02-.47.27-.98.58-1.55.95-.57.37-1.18.83-1.85,1.4v-4.1c2.83-1.9,5.88-2.85,9.15-2.85s5.9,1.05,7.7,3.15c1.57,1.83,2.35,4.13,2.35,6.9ZM293.23,41.8v-1.6l-1.7.2c-4.17.43-7.1,1.02-8.8,1.75-2.27.9-3.4,2.37-3.4,4.4,0,.6.13,1.17.4,1.72.27.55.63,1.04,1.1,1.47.47.43,1.04.78,1.73,1.05.68.27,1.44.4,2.27.4,2.27,0,4.25-.92,5.95-2.75,1.63-1.87,2.45-4.08,2.45-6.65Z"/><path class="cls-2" d="M344.18,36.7v17.15h-3.65v-18c0-1.9-.65-3.43-1.95-4.6-1.1-1-2.4-1.5-3.9-1.5-2.23,0-4.23,1.03-6,3.1-1.73,2.03-2.6,4.55-2.6,7.55v13.45h-3.65v-18c0-1.8-.62-3.25-1.85-4.35-1.17-1.17-2.5-1.75-4-1.75-2.17,0-4.1.97-5.8,2.9-1.87,2.13-2.8,4.77-2.8,7.9v13.3h-3.65v-26.75h3.4l.15,4.25c.97-1.57,2.35-2.8,4.15-3.7,1.6-.77,3.22-1.15,4.85-1.15,2.53,0,4.67.73,6.4,2.2,1.27,1.1,2.07,2.2,2.4,3.3.67-1.23,1.62-2.35,2.85-3.35,1.93-1.43,4.07-2.15,6.4-2.15,2.83,0,5.03.85,6.6,2.55,1.77,1.93,2.65,4.48,2.65,7.65Z"/><path class="cls-2" d="M352.48,51.45v11h-3.5V27.1h3.25l.2,4.85c1.1-1.8,2.37-3.16,3.8-4.08,1.43-.92,3.17-1.38,5.2-1.38,3.33,0,6.1,1.3,8.3,3.9,1.13,1.3,1.98,2.76,2.55,4.38.57,1.62.85,3.43.85,5.43,0,4.13-1.25,7.55-3.75,10.25s-5.48,4.05-8.95,4.05c-1.73,0-3.33-.37-4.8-1.1-.43-.17-.9-.42-1.4-.75-.5-.33-1.08-.73-1.75-1.2ZM352.48,39.6v8c.53.5,1.03.92,1.47,1.27.45.35.86.64,1.22.88,1.63.97,3.28,1.45,4.95,1.45,2.67,0,4.85-1.05,6.55-3.15,1.73-2.2,2.6-4.87,2.6-8,0-2.93-.8-5.38-2.4-7.35-1.57-1.97-3.57-2.95-6-2.95s-4.57,1.08-6.2,3.25c-1.47,1.97-2.2,4.17-2.2,6.6Z"/><path class="cls-1" d="M66.91,25.56c-.68-3.55-1.36-3.6-2.97-6.74-.54-1.08-1.69-2.93-2.56-3.23h-.01c-.76-.29-1.4.23-2.08.69-3.46,2.76-16.14,6.45-20.33,4.57-.87-.39-1.47-4.81-1.64-5.94,7.63-.7,17.35-3.16,17.81-5.88C55.65,6.03,44.87,0,33.81,0,22.36,0,11.31,6.44,11.89,9.48c.51,2.7,10.23,4.89,17.82,5.47-.24,1.61.13,6.49-1.97,6.8-4.82.73-12.97-1.44-17.41-3.56-.85-.43-1.54-.99-2.25-1.45-.92-.59-1.55-.53-2.34.39-2.68,3.56-4.63,5.66-5.32,10.18-3,19.43,10.54,39.02,29.83,40.98,23.66,2.57,41.13-20.21,36.66-42.73Z"/></g></svg>