<?xml version="1.0" encoding="UTF-8"?><svg id="Layer_2" xmlns="http://www.w3.org/2000/svg" xmlns:xlink="http://www.w3.org/1999/xlink" viewBox="0 0 101.41 102.73"><defs><style>.cls-1{fill:url(#linear-gradient);}</style><linearGradient id="linear-gradient" x1="50.7" y1="102.73" x2="50.7" y2="0" gradientUnits="userSpaceOnUse"><stop offset="0" stop-color="#86efac"/><stop offset="1" stop-color="#22c55e"/></linearGradient></defs><g id="Layer_1-2"><path class="cls-1" d="M100.36,38.34c-1.02-5.32-2.04-5.4-4.46-10.1-.81-1.62-2.54-4.39-3.83-4.84h-.02c-1.15-.43-2.1.34-3.11,1.03-5.18,4.14-24.2,9.68-30.5,6.85-1.3-.59-2.2-7.21-2.46-8.91,11.44-1.05,26.02-4.74,26.72-8.81C83.46,9.04,67.3,0,50.71,0,33.54,0,16.97,9.66,17.83,14.22c.77,4.04,15.35,7.33,26.73,8.21-.36,2.41.19,9.73-2.96,10.2-7.22,1.09-19.45-2.15-26.11-5.34-1.27-.65-2.3-1.49-3.38-2.17-1.38-.88-2.32-.79-3.52.58-4.02,5.33-6.94,8.48-7.98,15.27-4.5,29.14,15.81,58.53,44.74,61.47,35.49,3.85,61.69-30.31,54.99-64.1Z"/></g></svg>