<?xml version="1.0" encoding="UTF-8"?><svg id="Layer_2" xmlns="http://www.w3.org/2000/svg" viewBox="0 0 70.7 71.6"><defs><style>.cls-1{fill:none;stroke:#000;stroke-miterlimit:10;stroke-width:3px;}</style></defs><g id="Layer_1-2"><path class="cls-1" d="M68.39,26.89c-.42-2.61-1.81-4.52-3.1-6.88-1.35-2.34-2.46-3.89-5.03-1.85-3.27,2.19-16.53,6.73-20.05,3.71-.53-.76-.9-2.66-1.13-4.03-.08-.54-.04-.95.25-1.2.3-.26.79-.35,1.21-.42,2.48-.31,5.14-.77,7.53-1.37,2.91-.85,8.06-1.95,8.56-4.56,0-3.32-12.18-9.65-23.74-8.69-6.53.61-14.55,2.89-18.89,7.69-3.55,4.66,12.24,6.57,15.28,6.96,1.01.09,1.99.37,1.84,1.63-.18,2.15-.11,5.05-2.39,5.38-4.97.51-12.43-1.41-17.08-3.73-1.24-.6-2.66-2.19-4.05-1.08-2.26,2.33-3.95,4.77-5.02,7.7-3.47,13.03,1.73,27.53,11.81,36.13,25.42,21.26,60.48-4.33,54.04-35.19l-.04-.2Z"/></g></svg>