<?xml version="1.0" encoding="UTF-8"?><svg id="Layer_2" xmlns="http://www.w3.org/2000/svg" viewBox="0 0 95.22 28.48"><defs><style>.cls-1{fill:none;stroke:#000;stroke-linecap:round;stroke-linejoin:round;stroke-width:2.67px;}</style></defs><g id="Layer_1-2"><path class="cls-1" d="M11.9,10.67v.27c2.06.79,3.09,3.11,2.3,5.17-.6,1.56-2.1,2.58-3.76,2.56h-5.2c-2.21-.05-3.95-1.89-3.9-4.1.04-1.62,1.05-3.05,2.57-3.64v-.27c0-2.21,1.79-4,4-4s4,1.79,4,4M7.9,18.67v8M15.9,22.67v4"/><path class="cls-1" d="M14.57,22.67h11.07c.74-.01,1.32-.62,1.31-1.35,0-.34-.14-.67-.38-.91l-4-4.4h.4c.74-.01,1.32-.62,1.31-1.35,0-.34-.14-.67-.38-.91l-4-4.4h.27c.73.07,1.38-.47,1.45-1.21.04-.39-.1-.78-.38-1.06L15.9,1.33l-1.87,2"/><path class="cls-1" d="M49.51,16.31l4,4.4c.52.53.51,1.37-.02,1.89-.24.24-.57.38-.91.38h-19.47c-.74-.01-1.32-.62-1.31-1.35,0-.34.14-.67.38-.91l4-4.4h-.4c-.74-.01-1.32-.62-1.31-1.35,0-.34.14-.67.38-.91l4-4.4h-.27c-.73.07-1.38-.47-1.45-1.21-.04-.39.1-.78.38-1.06l5.33-5.73,5.33,5.73c.52.52.51,1.37,0,1.89-.28.28-.67.42-1.06.38h-.27l4,4.4c.52.53.51,1.37-.02,1.89-.24.24-.57.38-.91.38h-.4ZM42.84,26.98v-4"/><path class="cls-1" d="M61.88,27.15v-4"/><path class="cls-1" d="M89.51,16.31l4,4.4c.52.53.51,1.37-.02,1.89-.24.24-.57.38-.91.38h-19.47c-.74-.01-1.32-.62-1.31-1.35,0-.34.14-.67.38-.91l4-4.4h-.4c-.74-.01-1.32-.62-1.31-1.35,0-.34.14-.67.38-.91l4-4.4h-.27c-.73.07-1.38-.47-1.45-1.21-.04-.39.1-.78.38-1.06l5.33-5.73,5.33,5.73c.52.52.51,1.37,0,1.89-.28.28-.67.42-1.06.38h-.27l4,4.4c.52.53.51,1.37-.02,1.89-.24.24-.57.38-.91.38h-.4ZM82.84,26.98v-4"/></g></svg>