<?xml version="1.0" encoding="UTF-8"?><svg id="Layer_2" xmlns="http://www.w3.org/2000/svg" viewBox="0 0 88.75 28.17"><defs><style>.cls-1{fill:none;stroke:#000;stroke-linecap:round;stroke-linejoin:round;stroke-width:2.67px;}</style></defs><g id="Layer_1-2"><path class="cls-1" d="M33.42,26.83v-4"/><path class="cls-1" d="M47.42,26.83v-4"/><path class="cls-1" d="M61.42,26.71v-3.75"/><path class="cls-1" d="M75.42,26.71v-3.75"/><path class="cls-1" d="M87.42,26.71v-3.75"/><path class="cls-1" d="M19.05,16l4,4.4c.52.53.51,1.37-.02,1.89-.24.24-.57.38-.91.38H2.65c-.74-.01-1.32-.62-1.31-1.35,0-.34.14-.67.38-.91l4-4.4h-.4c-.74-.01-1.32-.62-1.31-1.35,0-.34.14-.67.38-.91l4-4.4h-.27c-.73.07-1.38-.47-1.45-1.21-.04-.39.1-.78.38-1.06L12.38,1.33l5.33,5.73c.52.52.51,1.37,0,1.89-.28.28-.67.42-1.06.38h-.27l4,4.4c.52.53.51,1.37-.02,1.89-.24.24-.57.38-.91.38h-.4ZM12.38,26.67v-4"/></g></svg>