<?xml version="1.0" encoding="UTF-8"?><svg id="Layer_2" xmlns="http://www.w3.org/2000/svg" viewBox="0 0 24 23.97"><defs><style>.cls-1{fill:#ef4444;fill-rule:evenodd;stroke-width:0px;}.cls-2{fill:none;stroke:#ef4444;stroke-linecap:round;stroke-linejoin:round;stroke-width:1.5px;}</style></defs><g id="Layer_1-2"><path class="cls-1" d="M1.82,7.31c-.69-.02-1.39.41-1.61,1.07-.06.17-.09.38-.11.58-.02.21-.04.47-.06.75C.02,10.35,0,10.99,0,11.64c0,1.35.03,2.75.08,3.18.09.76.52,1.47.9,2.08l.04.07c.12.19.23.37.34.56.5.86,1.05,1.44,1.54,1.97h.01c.28.31.54.58.78.89-.24.25-.37.58-.37.92v1.33c0,.74.6,1.33,1.33,1.33h5.33c.74,0,1.33-.6,1.33-1.33v-1.33c0-.7-.54-1.28-1.24-1.33-.09-.76-.21-1.78-.22-2.07,0-.25-.09-.5-.17-.68-.08-.19-.18-.38-.28-.56-.11-.19-.23-.37-.35-.54l-.03-.04h0s0-.01,0-.01h0s0-.01,0-.01l-2.16-2.73-.02-.02h0s0,0,0,0l-.02-.02c-.1-.11-.2-.22-.29-.34-.2-.25-.38-.53-.53-.82-.15-.31-.44-.61-.88-.63-.38-.02-.67.18-.84.33-.09.09-.18.18-.26.28l-.03-.4v-.04c-.07-.88-.15-1.94-.41-2.79-.3-1-.98-1.55-1.77-1.57M8.49,16.47l.54-.4-.54.4ZM8.75,19.97c-.09-.73-.19-1.69-.21-2.02,0-.02,0-.04-.01-.06-.02-.05-.03-.1-.06-.16-.06-.14-.13-.27-.21-.4-.09-.15-.19-.3-.29-.45l-.02-.02-2.11-2.66h-.01c-.12-.15-.24-.29-.35-.43-.18-.23-.34-.47-.49-.72h0c-.06.12-.09.22-.1.29-.04.24-.02.4,0,.49,0,.03.01.06.02.08h0s1.22,2.43,1.22,2.43l-1.13.69-.02-.02-.05-.06c-.24-.33-.47-.66-.71-.99-.4-.58-.89-1.28-1.13-1.71-.18-.32-.26-.74-.31-1.12-.05-.44-.1-.87-.12-1.31h0c-.07-.95-.14-1.87-.35-2.56-.09-.3-.21-.46-.3-.53-.06-.06-.14-.09-.23-.09-.18,0-.3.12-.32.17,0,0,0,.03-.02.08-.01.07-.02.14-.03.22-.02.18-.04.41-.05.68-.03.62-.04,1.25-.04,1.87,0,1.36.03,2.68.07,3.03.05.43.32.89.75,1.6h0c.11.19.24.38.36.59.42.72.88,1.21,1.37,1.74h.01c.37.41.77.83,1.15,1.38h3.69ZM5.2,12.8s0,0,0,0c0,0,0,0,0,0M10,22.64v-1.33h-5.33v1.33h5.33ZM23.79,8.38c-.23-.66-.92-1.09-1.61-1.07-.79.02-1.46.57-1.77,1.57-.26.85-.34,1.91-.4,2.79v.04s-.03.4-.03.4c-.08-.1-.17-.2-.26-.28-.17-.15-.47-.35-.84-.33-.44.02-.73.32-.88.63-.15.29-.33.57-.53.82-.09.12-.19.23-.29.34l-.02.02h0s-.02.02-.02.02l-2.16,2.73h0s0,.01,0,.01h0s0,.01,0,.01c-.13.19-.26.38-.38.58-.11.18-.2.37-.28.56-.08.19-.16.43-.17.68-.01.29-.13,1.31-.22,2.07-.7.05-1.24.63-1.24,1.33v1.33c0,.74.6,1.33,1.33,1.33h5.33c.74,0,1.33-.6,1.33-1.33v-1.33c0-.34-.13-.67-.37-.92.24-.31.5-.58.78-.88h.01c.5-.54,1.04-1.12,1.54-1.98.11-.19.23-.38.34-.56l.04-.07c.38-.62.82-1.32.9-2.08.05-.43.08-1.83.08-3.18,0-.64-.02-1.29-.04-1.93-.01-.25-.03-.5-.06-.75-.02-.2-.05-.41-.11-.58M15.51,16.47l-.54-.4.54.4ZM18.95,19.97c.38-.54.78-.97,1.15-1.36h.01c.5-.54.95-1.03,1.37-1.75.12-.21.24-.4.36-.59h0c.44-.72.71-1.17.75-1.6.04-.34.07-1.67.07-3.03,0-.67-.02-1.33-.04-1.87-.01-.27-.03-.5-.05-.68,0-.07-.02-.14-.03-.22,0-.03,0-.05-.02-.08-.02-.05-.14-.17-.32-.17-.08,0-.16.04-.23.09-.09.07-.2.23-.3.53-.21.69-.28,1.62-.35,2.55h0c-.03.47-.07.93-.12,1.33-.05.38-.14.8-.31,1.12-.24.42-.72,1.13-1.13,1.71-.23.33-.47.66-.71.99l-.05.06-.02.02-1.13-.69,1.22-2.42h0s.02-.06.02-.08c.02-.09.04-.25,0-.49-.02-.1-.05-.19-.1-.28h0c-.16.27-.34.52-.49.71-.11.14-.23.28-.35.42h-.01s-2.11,2.68-2.11,2.68l-.02.02c-.1.14-.2.29-.29.45-.08.14-.15.28-.21.4-.03.06-.04.11-.06.15,0,.02-.01.04-.01.06-.01.33-.12,1.29-.21,2.02h3.7ZM18.8,12.8s0,0,0,0c0,0,0,0,0,0M14,22.64v-1.33h5.33v1.33h-5.33Z"/><path class="cls-2" d="M17.38,5.97c0-2.88-2.31-5.22-5.16-5.22s-5.16,2.34-5.16,5.22c0,.32.26.58.58.58h9.16c.32,0,.58-.26.58-.58M10.93,6.55v4.51c0,.71.58,1.29,1.29,1.29s1.29-.58,1.29-1.29v-4.51"/></g></svg>