<?xml version="1.0" encoding="UTF-8"?><svg id="Layer_2" xmlns="http://www.w3.org/2000/svg" viewBox="0 0 24 27.07"><defs><style>.cls-1{fill:none;}.cls-1,.cls-2{stroke-width:0px;}.cls-2{fill:#ef4444;}</style></defs><g id="Layer_1-2"><path class="cls-1" d="M3.85,0h16.22v16.22H3.85V0Z"/><path class="cls-2" d="M13.99,10.14v2.7c0,1.12-.91,2.03-2.03,2.03-1.08,0-1.96-.84-2.03-1.91v-.12s0-2.7,0-2.7h4.06ZM7.16,8.79c-.67,0-1.23-.52-1.28-1.18v-.1c0-3.4,2.72-6.15,6.08-6.15s6.08,2.76,6.08,6.15c0,.67-.52,1.23-1.18,1.28h-.1s-9.6,0-9.6,0Z"/><path class="cls-2" d="M2.74,20.82c.38.4.75.8,1.11,1.31v.95h4.96v-.95c-.09-.74-.24-2.06-.26-2.43-.02-.52-.71-1.46-.71-1.46l-2.14-2.69s-.6-.64-.95-1.35c-.35-.71-1.08.18-1.18.82-.1.64.09.97.09.97l1.22,2.43s-1.41-1.94-1.85-2.72c-.22-.39-.28-1.23-.35-2.16-.07-.91-.14-1.91-.38-2.69-.48-1.58-1.87-1.18-2.11-.48-.24.71-.19,5.37-.1,6.15.07.61.44,1.21.85,1.88.11.19.23.38.35.58.46.79.97,1.33,1.47,1.86M20.16,22.13c.35-.51.73-.91,1.11-1.31.5-.53,1-1.06,1.47-1.86.12-.2.23-.39.35-.58.41-.67.78-1.27.85-1.88.09-.78.14-5.44-.1-6.15-.24-.71-1.63-1.1-2.11.48-.24.78-.31,1.78-.38,2.69-.07.93-.13,1.77-.35,2.16-.44.78-1.85,2.72-1.85,2.72l1.22-2.43s.19-.34.09-.97-.83-1.53-1.18-.82c-.35.71-.95,1.35-.95,1.35l-2.14,2.69s-.7.95-.71,1.46c-.01.37-.17,1.69-.26,2.43v.95h4.96v-.95ZM13.33,26.41c0,.37.3.67.67.67h5.33c.37,0,.67-.3.67-.67v-1.33c0-.37-.3-.67-.67-.67h-5.33c-.37,0-.67.3-.67.67v1.33ZM10.67,26.41c0,.37-.3.67-.67.67h-5.33c-.37,0-.67-.3-.67-.67v-1.33c0-.37.3-.67.67-.67h5.33c.37,0,.67.3.67.67v1.33Z"/></g></svg>