<?xml version="1.0" encoding="UTF-8"?><svg id="Layer_2" xmlns="http://www.w3.org/2000/svg" viewBox="0 0 35.04 21.04"><defs><style>.cls-1{fill:none;stroke:#000;stroke-linecap:round;stroke-linejoin:round;stroke-width:2px;}</style></defs><g id="Layer_1-2"><path class="cls-1" d="M12.34,1.04c-.05.06-.09.12-.1.19-.26,1.11,4.39,3.12,10.39,4.48s11.07,1.58,11.33.47c.02-.08,0-.17-.02-.26C26.72,3.96,19.85,1.4,12.34,1.04Z"/><path class="cls-1" d="M33.96,6.16c.02-.07.06-.14.08-.21,0,0-.02,0-.02,0-.26-.07-.51-.15-.77-.22-6.12-1.7-12.02-3.77-18.29-4.5-.14-.02-.28-.02-.42-.03-.78-.08-1.56-.16-2.35-.19,0,0,0,0,0,0-.03,0-.05,0-.08,0,0,.06,0,.12-.02.18,0,0,0,.01,0,.02,0,.02,0,.04,0,.05-.28,2.31.2,4.58,1.29,6.53-4.11.15-8.19.52-12.28,1.47,0,0,0,0,0,0-.03,0-.06.01-.09.02.01.07.03.14.04.21,0,0,0,.01,0,.02,0,.02.02.04.02.06,1.11,6.27,7.16,10.86,14.18,10.46,5.02-.29,9.24-3.05,11.38-6.92,3.33-.99,6.09-3.47,7.3-6.82.01-.03.04-.05.04-.08,0,0,0-.02,0-.03Z"/><path class="cls-1" d="M28.09,7.66c-9.17.16-18.14-.48-27.09,1.61.97,6.42,7.11,11.15,14.24,10.74s12.71-5.84,12.88-12.35c0,0-.02,0-.03,0Z"/><path class="cls-1" d="M1.09,9.25c-.04.08-.06.17-.06.25.08,1.33,6.2,2.06,13.68,1.63,7.48-.43,13.47-1.85,13.4-3.18,0-.1-.05-.19-.12-.28-9.1.16-18.01-.47-26.9,1.58Z"/></g></svg>